<?xml version="1.0" encoding="utf-8"?>
<!-- Generator: Adobe Illustrator 25.4.0, SVG Export Plug-In . SVG Version: 6.00 Build 0)  -->
<svg version="1.1" id="Layer_1" xmlns="http://www.w3.org/2000/svg" xmlns:xlink="http://www.w3.org/1999/xlink" x="0px" y="0px"
	 viewBox="0 0 217.4 39" style="enable-background:new 0 0 217.4 39;" xml:space="preserve">
<style type="text/css">
	.st0{fill:#481FA0;}
	.st1{fill:#152C5B;}
</style>
<path class="st0" d="M69.8,19.5c0,10.7-8.7,19.5-19.5,19.5c-6.3,0-11.8-3-15.4-7.6c-0.1-0.1-0.1-0.2-0.2-0.3c-0.3-0.3-0.5-0.7-0.7-1
	c-0.9-1.4-1.6-2.9-2.2-4.5c-0.1-0.3-0.2-0.5-0.3-0.8c-0.1-0.3-0.2-0.6-0.2-0.9c-0.1-0.4-0.2-0.7-0.2-1c-0.2-1.1-0.3-2.2-0.3-3.4
	c0-6.3-5.1-11.4-11.3-11.4c-6.3,0-11.3,5.1-11.3,11.4c0,6.2,5.1,11.3,11.3,11.3c3.5,0,6.6-1.6,8.6-4c0.9,2.7,2.3,5.2,4.1,7.4
	c-3.4,3-7.8,4.8-12.7,4.8C8.7,39,0,30.3,0,19.5C0,8.7,8.7,0,19.5,0c6.3,0,11.9,3,15.4,7.6c0.3,0.4,0.6,0.8,0.9,1.3
	c0.9,1.4,1.6,2.9,2.2,4.5c0.1,0.3,0.2,0.5,0.3,0.8c0.1,0.3,0.2,0.6,0.2,0.9c0.1,0.4,0.2,0.7,0.2,1c0.2,1.1,0.3,2.3,0.3,3.4
	c0,6.2,5.1,11.3,11.3,11.3c6.3,0,11.3-5.1,11.3-11.3c0-6.3-5-11.4-11.3-11.4c-3.5,0-6.6,1.6-8.7,4c-0.9-2.7-2.3-5.2-4.1-7.4
	C41,1.8,45.4,0,50.3,0C61.1,0,69.8,8.7,69.8,19.5z"/>
<g>
	<path class="st1" d="M79.8,31V8.2H84v19.1h10.9V31H79.8z"/>
	<path class="st1" d="M104.2,31.3c-1.7,0-3.1-0.3-4.4-1c-1.2-0.7-2.2-1.6-2.9-2.9c-0.7-1.2-1-2.7-1-4.4c0-1.7,0.3-3.2,1-4.4
		c0.7-1.2,1.6-2.2,2.9-2.9s2.7-1,4.4-1c1.7,0,3.2,0.3,4.4,1s2.2,1.6,2.9,2.9c0.7,1.2,1,2.7,1,4.4s-0.3,3.1-1,4.4s-1.6,2.2-2.9,2.9
		C107.3,31,105.9,31.3,104.2,31.3z M104.2,28c1.3,0,2.3-0.4,3-1.3c0.7-0.9,1.1-2.1,1.1-3.7c0-1.6-0.4-2.8-1.1-3.7
		c-0.7-0.9-1.7-1.3-3-1.3c-1.2,0-2.2,0.4-3,1.3c-0.7,0.9-1.1,2.1-1.1,3.7c0,1.6,0.4,2.9,1.1,3.7S102.9,28,104.2,28z"/>
	<path class="st1" d="M122.1,31.3c-1.7,0-3.1-0.3-4.4-1c-1.2-0.7-2.2-1.6-2.9-2.9c-0.7-1.2-1-2.7-1-4.4c0-1.7,0.3-3.2,1-4.4
		c0.7-1.2,1.6-2.2,2.9-2.9s2.7-1,4.4-1c1.7,0,3.2,0.3,4.4,1s2.2,1.6,2.9,2.9c0.7,1.2,1,2.7,1,4.4s-0.3,3.1-1,4.4s-1.6,2.2-2.9,2.9
		C125.2,31,123.8,31.3,122.1,31.3z M122.1,28c1.3,0,2.3-0.4,3-1.3c0.7-0.9,1.1-2.1,1.1-3.7c0-1.6-0.4-2.8-1.1-3.7
		c-0.7-0.9-1.7-1.3-3-1.3c-1.2,0-2.2,0.4-3,1.3c-0.7,0.9-1.1,2.1-1.1,3.7c0,1.6,0.4,2.9,1.1,3.7S120.8,28,122.1,28z"/>
	<path class="st1" d="M132.5,36.8V15h3.9v3.3h-0.1c0.4-1.1,1.1-2,2.1-2.6c1-0.6,2.2-1,3.5-1c1.4,0,2.7,0.3,3.8,1
		c1.1,0.7,1.9,1.6,2.5,2.9c0.6,1.2,0.9,2.7,0.9,4.4c0,1.6-0.3,3.1-0.9,4.3c-0.6,1.3-1.4,2.2-2.5,2.9c-1.1,0.7-2.3,1-3.8,1
		c-1.3,0-2.4-0.3-3.4-0.9c-1-0.6-1.6-1.4-2-2.5h0.2v8.9H132.5z M140.7,28.1c1.3,0,2.3-0.4,3-1.3c0.7-0.9,1.1-2.2,1.1-3.8
		s-0.4-2.9-1.1-3.8c-0.7-0.9-1.7-1.3-3-1.3c-1.2,0-2.2,0.4-3,1.3c-0.7,0.9-1.1,2.1-1.1,3.8s0.4,2.9,1.1,3.8
		C138.5,27.7,139.4,28.1,140.7,28.1z"/>
	<path class="st1" d="M152,31V8.2h2.8v10h13.5v-10h2.8V31h-2.8V20.7h-13.5V31H152z"/>
	<path class="st1" d="M182.1,31.3c-1.6,0-2.9-0.3-4.1-1c-1.2-0.7-2-1.6-2.7-2.9c-0.6-1.2-0.9-2.7-0.9-4.4c0-1.7,0.3-3.1,0.9-4.3
		c0.6-1.2,1.5-2.2,2.7-2.8c1.2-0.7,2.5-1,4.1-1c1.6,0,2.9,0.3,4.1,1c1.2,0.7,2,1.6,2.7,2.8c0.6,1.2,0.9,2.7,0.9,4.3
		c0,1.7-0.3,3.1-0.9,4.4c-0.6,1.2-1.5,2.2-2.7,2.9C185.1,31,183.7,31.3,182.1,31.3z M182.1,29c1.5,0,2.7-0.5,3.6-1.6
		c0.9-1.1,1.3-2.5,1.3-4.4c0-1.9-0.4-3.3-1.3-4.4s-2.1-1.6-3.6-1.6c-1.5,0-2.7,0.5-3.6,1.6s-1.3,2.5-1.3,4.4c0,1.9,0.4,3.3,1.3,4.4
		C179.4,28.5,180.6,29,182.1,29z"/>
	<path class="st1" d="M197.9,31.3c-0.8,0-1.7-0.1-2.5-0.2c-0.8-0.2-1.6-0.4-2.2-0.7c-0.7-0.3-1.3-0.6-1.8-1l0.9-2
		c0.5,0.4,1.1,0.7,1.7,1c0.6,0.3,1.3,0.5,1.9,0.6c0.7,0.1,1.3,0.2,2,0.2c1.3,0,2.2-0.2,2.9-0.6c0.7-0.4,1-1,1-1.8
		c0-0.6-0.2-1.1-0.6-1.5s-1.1-0.6-2-0.8l-3.1-0.6c-1.4-0.3-2.5-0.8-3.2-1.5c-0.7-0.7-1.1-1.7-1.1-2.8c0-0.9,0.3-1.8,0.8-2.5
		c0.5-0.7,1.3-1.3,2.2-1.6c1-0.4,2.1-0.6,3.4-0.6c0.7,0,1.5,0.1,2.2,0.2c0.7,0.2,1.4,0.4,2.1,0.7c0.6,0.3,1.2,0.7,1.6,1.1l-0.9,1.9
		c-0.4-0.4-0.9-0.7-1.5-1c-0.5-0.3-1.1-0.5-1.7-0.6c-0.6-0.1-1.2-0.2-1.8-0.2c-1.2,0-2.1,0.2-2.8,0.7c-0.7,0.5-1,1.1-1,1.8
		c0,0.6,0.2,1.1,0.6,1.5c0.4,0.4,1,0.6,1.9,0.8l3.1,0.6c1.5,0.3,2.6,0.8,3.4,1.5c0.7,0.7,1.1,1.6,1.1,2.8c0,1-0.3,1.8-0.8,2.5
		c-0.5,0.7-1.3,1.2-2.3,1.6C200.4,31.1,199.2,31.3,197.9,31.3z"/>
	<path class="st1" d="M214.3,31.3c-1.9,0-3.3-0.5-4.3-1.5s-1.4-2.4-1.4-4.3v-8.1h-3.2v-2.2h3.2v-4.8h2.7v4.8h5.4v2.2h-5.4v7.9
		c0,1.2,0.3,2.1,0.8,2.8c0.5,0.6,1.4,0.9,2.5,0.9c0.4,0,0.8,0,1.2-0.1c0.4-0.1,0.7-0.2,1.1-0.3l0.5,2.1c-0.4,0.2-0.8,0.4-1.4,0.5
		C215.5,31.2,214.9,31.3,214.3,31.3z"/>
</g>
</svg>
